<svg xmlns="http://www.w3.org/2000/svg" xmlns:xlink="http://www.w3.org/1999/xlink" width="400" height="280" viewBox="0 0 400 280"><rect width="100%" height="100%" fill="#DDDDDD"/><path d="M83.04 144.89L95.14 144.89L95.14 131.89Q95.14 130.04 95.39 127.82L95.39 127.82L83.04 144.89ZM101.06 144.89L106.06 144.89L106.06 148.83Q106.06 149.38 105.70 149.78Q105.34 150.17 104.69 150.17L104.69 150.17L101.06 150.17L101.06 159.88L95.14 159.88L95.14 150.17L78.37 150.17Q77.68 150.17 77.16 149.75Q76.64 149.32 76.50 148.69L76.50 148.69L75.78 145.25L94.62 120.09L101.06 120.09L101.06 144.89ZM137.99 140L137.99 140Q137.99 145.20 136.87 149.03Q135.76 152.87 133.79 155.37Q131.83 157.88 129.15 159.10Q126.47 160.32 123.36 160.32L123.36 160.32Q120.25 160.32 117.60 159.10Q114.94 157.88 112.99 155.37Q111.04 152.87 109.94 149.03Q108.84 145.20 108.84 140L108.84 140Q108.84 134.77 109.94 130.95Q111.04 127.13 112.99 124.63Q114.94 122.13 117.60 120.90Q120.25 119.68 123.36 119.68L123.36 119.68Q126.47 119.68 129.15 120.90Q131.83 122.13 133.79 124.63Q135.76 127.13 136.87 130.95Q137.99 134.77 137.99 140ZM130.97 140L130.97 140Q130.97 135.68 130.34 132.85Q129.71 130.02 128.65 128.34Q127.59 126.66 126.22 125.99Q124.84 125.31 123.36 125.31L123.36 125.31Q121.90 125.31 120.54 125.99Q119.18 126.66 118.13 128.34Q117.09 130.02 116.47 132.85Q115.85 135.68 115.85 140L115.85 140Q115.85 144.32 116.47 147.15Q117.09 149.98 118.13 151.66Q119.18 153.34 120.54 154.01Q121.90 154.69 123.36 154.69L123.36 154.69Q124.84 154.69 126.22 154.01Q127.59 153.34 128.65 151.66Q129.71 149.98 130.34 147.15Q130.97 144.32 130.97 140ZM169.89 140L169.89 140Q169.89 145.20 168.77 149.03Q167.66 152.87 165.69 155.37Q163.73 157.88 161.05 159.10Q158.37 160.32 155.26 160.32L155.26 160.32Q152.15 160.32 149.50 159.10Q146.84 157.88 144.89 155.37Q142.94 152.87 141.84 149.03Q140.74 145.20 140.74 140L140.74 140Q140.74 134.77 141.84 130.95Q142.94 127.13 144.89 124.63Q146.84 122.13 149.50 120.90Q152.15 119.68 155.26 119.68L155.26 119.68Q158.37 119.68 161.05 120.90Q163.73 122.13 165.69 124.63Q167.66 127.13 168.77 130.95Q169.89 134.77 169.89 140ZM162.88 140L162.88 140Q162.88 135.68 162.24 132.85Q161.61 130.02 160.55 128.34Q159.49 126.66 158.12 125.99Q156.74 125.31 155.26 125.31L155.26 125.31Q153.80 125.31 152.44 125.99Q151.08 126.66 150.03 128.34Q148.99 130.02 148.37 132.85Q147.75 135.68 147.75 140L147.75 140Q147.75 144.32 148.37 147.15Q148.99 149.98 150.03 151.66Q151.08 153.34 152.44 154.01Q153.80 154.69 155.26 154.69L155.26 154.69Q156.74 154.69 158.12 154.01Q159.49 153.34 160.55 151.66Q161.61 149.98 162.24 147.15Q162.88 144.32 162.88 140ZM213.56 150.78L209.96 154.33L200.63 145.00L191.23 154.38L187.63 150.83L197.03 141.40L188.07 132.44L191.64 128.86L200.61 137.83L209.52 128.92L213.15 132.49L204.21 141.43L213.56 150.78ZM246.67 153.56L256.87 153.56Q257.97 153.56 258.62 154.18Q259.26 154.79 259.26 155.81L259.26 155.81L259.26 159.88L231.98 159.88L231.98 157.63Q231.98 156.94 232.27 156.18Q232.56 155.43 233.19 154.82L233.19 154.82L245.27 142.72Q246.78 141.18 247.97 139.78Q249.17 138.38 249.97 137.00Q250.77 135.63 251.19 134.21Q251.62 132.79 251.62 131.23L251.62 131.23Q251.62 129.80 251.21 128.71Q250.79 127.63 250.04 126.88Q249.28 126.14 248.22 125.77Q247.16 125.40 245.84 125.40L245.84 125.40Q244.63 125.40 243.60 125.74Q242.57 126.08 241.77 126.70Q240.98 127.32 240.43 128.15Q239.88 128.97 239.60 129.96L239.60 129.96Q239.13 131.23 238.39 131.64Q237.65 132.05 236.25 131.83L236.25 131.83L232.67 131.20Q233.08 128.34 234.27 126.18Q235.45 124.02 237.22 122.58Q239.00 121.13 241.29 120.41Q243.59 119.68 246.23 119.68L246.23 119.68Q248.98 119.68 251.26 120.49Q253.54 121.30 255.17 122.78Q256.79 124.27 257.70 126.36Q258.60 128.45 258.60 131.01L258.60 131.01Q258.60 133.21 257.96 135.08Q257.31 136.95 256.22 138.65Q255.14 140.36 253.68 141.95Q252.22 143.55 250.63 145.20L250.63 145.20L241.66 154.35Q242.96 153.97 244.23 153.76Q245.51 153.56 246.67 153.56L246.67 153.56ZM277.74 155.01L277.74 155.01Q279.42 155.01 280.69 154.53Q281.95 154.05 282.82 153.20Q283.68 152.35 284.12 151.16Q284.56 149.98 284.56 148.61L284.56 148.61Q284.56 145.33 282.75 143.66Q280.93 141.98 277.74 141.98L277.74 141.98Q274.55 141.98 272.74 143.66Q270.92 145.33 270.92 148.61L270.92 148.61Q270.92 149.98 271.36 151.16Q271.80 152.35 272.67 153.20Q273.54 154.05 274.80 154.53Q276.06 155.01 277.74 155.01ZM277.74 124.79L277.74 124.79Q276.23 124.79 275.13 125.26Q274.03 125.73 273.30 126.51Q272.57 127.29 272.23 128.31Q271.88 129.33 271.88 130.46L271.88 130.46Q271.88 131.64 272.17 132.75Q272.46 133.87 273.15 134.73Q273.84 135.60 274.97 136.12Q276.09 136.64 277.74 136.64L277.74 136.64Q279.39 136.64 280.52 136.12Q281.65 135.60 282.34 134.73Q283.02 133.87 283.31 132.75Q283.60 131.64 283.60 130.46L283.60 130.46Q283.60 129.33 283.24 128.31Q282.88 127.29 282.17 126.51Q281.46 125.73 280.36 125.26Q279.25 124.79 277.74 124.79ZM284.45 139.15L284.45 139.15Q288.08 140.33 289.81 142.76Q291.55 145.20 291.55 148.72L291.55 148.72Q291.55 151.36 290.54 153.50Q289.54 155.65 287.73 157.16Q285.91 158.67 283.37 159.50Q280.82 160.32 277.74 160.32L277.74 160.32Q274.66 160.32 272.12 159.50Q269.58 158.67 267.76 157.16Q265.94 155.65 264.94 153.50Q263.94 151.36 263.94 148.72L263.94 148.72Q263.94 145.20 265.67 142.76Q267.40 140.33 271.03 139.15L271.03 139.15Q268.15 137.94 266.70 135.71Q265.26 133.48 265.26 130.35L265.26 130.35Q265.26 128.09 266.18 126.14Q267.10 124.19 268.75 122.74Q270.40 121.30 272.70 120.49Q274.99 119.68 277.74 119.68L277.74 119.68Q280.49 119.68 282.79 120.49Q285.09 121.30 286.74 122.74Q288.38 124.19 289.31 126.14Q290.23 128.09 290.23 130.35L290.23 130.35Q290.23 133.48 288.78 135.71Q287.34 137.94 284.45 139.15ZM324.22 140L324.22 140Q324.22 145.20 323.10 149.03Q321.99 152.87 320.02 155.37Q318.06 157.88 315.38 159.10Q312.69 160.32 309.59 160.32L309.59 160.32Q306.48 160.32 303.83 159.10Q301.17 157.88 299.22 155.37Q297.27 152.87 296.17 149.03Q295.07 145.20 295.07 140L295.07 140Q295.07 134.77 296.17 130.95Q297.27 127.13 299.22 124.63Q301.17 122.13 303.83 120.90Q306.48 119.68 309.59 119.68L309.59 119.68Q312.69 119.68 315.38 120.90Q318.06 122.13 320.02 124.63Q321.99 127.13 323.10 130.95Q324.22 134.77 324.22 140ZM317.20 140L317.20 140Q317.20 135.68 316.57 132.85Q315.94 130.02 314.88 128.34Q313.82 126.66 312.45 125.99Q311.07 125.31 309.59 125.31L309.59 125.31Q308.13 125.31 306.77 125.99Q305.41 126.66 304.36 128.34Q303.32 130.02 302.70 132.85Q302.08 135.68 302.08 140L302.08 140Q302.08 144.32 302.70 147.15Q303.32 149.98 304.36 151.66Q305.41 153.34 306.77 154.01Q308.13 154.69 309.59 154.69L309.59 154.69Q311.07 154.69 312.45 154.01Q313.82 153.34 314.88 151.66Q315.94 149.98 316.57 147.15Q317.20 144.32 317.20 140Z" fill="#999999"/></svg>