<svg xmlns="http://www.w3.org/2000/svg" xmlns:xlink="http://www.w3.org/1999/xlink" width="60" height="60" viewBox="0 0 60 60"><rect width="100%" height="100%" fill="#DDDDDD"/><path d="M16.51 26.02L14.15 28.91L13.88 29.25Q14.11 29.14 14.38 29.07Q14.64 29.01 14.95 29.01L14.95 29.01Q15.40 29.01 15.83 29.16Q16.26 29.31 16.58 29.61Q16.90 29.91 17.10 30.35Q17.30 30.80 17.30 31.39L17.30 31.39Q17.30 31.95 17.10 32.43Q16.89 32.92 16.53 33.28Q16.16 33.65 15.64 33.86Q15.12 34.06 14.49 34.06L14.49 34.06Q13.85 34.06 13.35 33.86Q12.84 33.66 12.48 33.29Q12.13 32.93 11.94 32.41Q11.75 31.90 11.75 31.27L11.75 31.27Q11.75 30.71 11.97 30.12Q12.20 29.53 12.68 28.89L12.68 28.89L14.58 26.34Q14.68 26.21 14.87 26.12Q15.06 26.02 15.30 26.02L15.30 26.02L16.51 26.02ZM14.46 32.95L14.46 32.95Q14.79 32.95 15.06 32.84Q15.33 32.73 15.53 32.54Q15.72 32.34 15.83 32.07Q15.94 31.80 15.94 31.49L15.94 31.49Q15.94 31.15 15.84 30.88Q15.73 30.61 15.54 30.42Q15.35 30.23 15.08 30.13Q14.81 30.03 14.48 30.03L14.48 30.03Q14.16 30.03 13.90 30.14Q13.63 30.25 13.45 30.44Q13.26 30.64 13.15 30.90Q13.05 31.17 13.05 31.48L13.05 31.48Q13.05 31.81 13.14 32.08Q13.23 32.35 13.41 32.55Q13.59 32.74 13.85 32.85Q14.12 32.95 14.46 32.95ZM23.77 30L23.77 30Q23.77 31.04 23.55 31.81Q23.32 32.57 22.93 33.07Q22.54 33.58 22.00 33.82Q21.46 34.06 20.84 34.06L20.84 34.06Q20.22 34.06 19.69 33.82Q19.16 33.58 18.77 33.07Q18.38 32.57 18.16 31.81Q17.94 31.04 17.94 30L17.94 30Q17.94 28.96 18.16 28.19Q18.38 27.43 18.77 26.93Q19.16 26.43 19.69 26.18Q20.22 25.94 20.84 25.94L20.84 25.94Q21.46 25.94 22.00 26.18Q22.54 26.43 22.93 26.93Q23.32 27.43 23.55 28.19Q23.77 28.96 23.77 30ZM22.37 30L22.37 30Q22.37 29.14 22.24 28.57Q22.11 28.00 21.90 27.67Q21.69 27.33 21.41 27.20Q21.14 27.06 20.84 27.06L20.84 27.06Q20.55 27.06 20.28 27.20Q20.01 27.33 19.80 27.67Q19.59 28.00 19.46 28.57Q19.34 29.14 19.34 30L19.34 30Q19.34 30.86 19.46 31.43Q19.59 32.00 19.80 32.33Q20.01 32.67 20.28 32.80Q20.55 32.94 20.84 32.94L20.84 32.94Q21.14 32.94 21.41 32.80Q21.69 32.67 21.90 32.33Q22.11 32.00 22.24 31.43Q22.37 30.86 22.37 30ZM32.50 32.16L31.78 32.87L29.92 31.00L28.04 32.88L27.32 32.17L29.20 30.28L27.40 28.49L28.12 27.77L29.91 29.57L31.69 27.78L32.42 28.50L30.63 30.29L32.50 32.16ZM41.00 26.02L38.64 28.91L38.37 29.25Q38.60 29.14 38.86 29.07Q39.13 29.01 39.44 29.01L39.44 29.01Q39.89 29.01 40.32 29.16Q40.74 29.31 41.07 29.61Q41.39 29.91 41.59 30.35Q41.79 30.80 41.79 31.39L41.79 31.39Q41.79 31.95 41.58 32.43Q41.38 32.92 41.01 33.28Q40.64 33.65 40.12 33.86Q39.60 34.06 38.98 34.06L38.98 34.06Q38.34 34.06 37.83 33.86Q37.33 33.66 36.97 33.29Q36.61 32.93 36.42 32.41Q36.23 31.90 36.23 31.27L36.23 31.27Q36.23 30.71 36.46 30.12Q36.69 29.53 37.17 28.89L37.17 28.89L39.06 26.34Q39.16 26.21 39.35 26.12Q39.54 26.02 39.79 26.02L39.79 26.02L41.00 26.02ZM38.95 32.95L38.95 32.95Q39.27 32.95 39.55 32.84Q39.82 32.73 40.01 32.54Q40.21 32.34 40.32 32.07Q40.43 31.80 40.43 31.49L40.43 31.49Q40.43 31.15 40.32 30.88Q40.22 30.61 40.03 30.42Q39.83 30.23 39.56 30.13Q39.30 30.03 38.97 30.03L38.97 30.03Q38.65 30.03 38.38 30.14Q38.12 30.25 37.93 30.44Q37.74 30.64 37.64 30.90Q37.54 31.17 37.54 31.48L37.54 31.48Q37.54 31.81 37.63 32.08Q37.72 32.35 37.90 32.55Q38.07 32.74 38.34 32.85Q38.60 32.95 38.95 32.95ZM48.25 30L48.25 30Q48.25 31.04 48.03 31.81Q47.81 32.57 47.42 33.07Q47.02 33.58 46.49 33.82Q45.95 34.06 45.33 34.06L45.33 34.06Q44.71 34.06 44.18 33.82Q43.65 33.58 43.26 33.07Q42.86 32.57 42.64 31.81Q42.42 31.04 42.42 30L42.42 30Q42.42 28.96 42.64 28.19Q42.86 27.43 43.26 26.93Q43.65 26.43 44.18 26.18Q44.71 25.94 45.33 25.94L45.33 25.94Q45.95 25.94 46.49 26.18Q47.02 26.43 47.42 26.93Q47.81 27.43 48.03 28.19Q48.25 28.96 48.25 30ZM46.85 30L46.85 30Q46.85 29.14 46.73 28.57Q46.60 28.00 46.39 27.67Q46.18 27.33 45.90 27.20Q45.63 27.06 45.33 27.06L45.33 27.06Q45.04 27.06 44.76 27.20Q44.49 27.33 44.28 27.67Q44.07 28.00 43.95 28.57Q43.83 29.14 43.83 30L43.83 30Q43.83 30.86 43.95 31.43Q44.07 32.00 44.28 32.33Q44.49 32.67 44.76 32.80Q45.04 32.94 45.33 32.94L45.33 32.94Q45.63 32.94 45.90 32.80Q46.18 32.67 46.39 32.33Q46.60 32.00 46.73 31.43Q46.85 30.86 46.85 30Z" fill="#999999"/></svg>