<svg xmlns="http://www.w3.org/2000/svg" xmlns:xlink="http://www.w3.org/1999/xlink" width="720" height="300" viewBox="0 0 720 300"><rect width="100%" height="100%" fill="#DDDDDD"/><path d="M142.99 114.93L191.44 114.93L191.44 120.12Q191.44 122.45 190.95 123.88Q190.47 125.31 189.98 126.28L189.98 126.28L163.41 180.99Q162.58 182.69 161.08 183.88Q159.57 185.07 157.05 185.07L157.05 185.07L148.37 185.07L175.48 131.47Q176.40 129.82 177.30 128.44Q178.20 127.06 179.31 125.80L179.31 125.80L145.75 125.80Q144.64 125.80 143.81 124.97Q142.99 124.15 142.99 123.03L142.99 123.03L142.99 114.93ZM224.32 173.91L242.31 173.91Q244.25 173.91 245.39 175.00Q246.53 176.09 246.53 177.89L246.53 177.89L246.53 185.07L198.42 185.07L198.42 181.09Q198.42 179.88 198.93 178.54Q199.44 177.21 200.56 176.14L200.56 176.14L221.85 154.80Q224.52 152.09 226.63 149.61Q228.73 147.14 230.14 144.71Q231.55 142.29 232.30 139.79Q233.05 137.29 233.05 134.53L233.05 134.53Q233.05 132.01 232.32 130.09Q231.60 128.17 230.26 126.87Q228.93 125.56 227.06 124.90Q225.19 124.25 222.87 124.25L222.87 124.25Q220.73 124.25 218.91 124.85Q217.09 125.46 215.69 126.55Q214.28 127.64 213.31 129.10Q212.34 130.55 211.86 132.30L211.86 132.30Q211.03 134.53 209.72 135.26Q208.41 135.98 205.94 135.60L205.94 135.60L199.63 134.48Q200.36 129.44 202.45 125.63Q204.53 121.82 207.66 119.28Q210.79 116.73 214.84 115.44Q218.89 114.16 223.55 114.16L223.55 114.16Q228.40 114.16 232.42 115.59Q236.45 117.02 239.31 119.64Q242.17 122.26 243.77 125.94Q245.37 129.63 245.37 134.14L245.37 134.14Q245.37 138.02 244.23 141.32Q243.09 144.62 241.17 147.62Q239.26 150.63 236.69 153.44Q234.12 156.26 231.31 159.17L231.31 159.17L215.49 175.32Q217.77 174.64 220.03 174.27Q222.28 173.91 224.32 173.91L224.32 173.91ZM304.83 150L304.83 150Q304.83 159.17 302.87 165.93Q300.90 172.70 297.43 177.11Q293.97 181.52 289.24 183.68Q284.51 185.84 279.03 185.84L279.03 185.84Q273.55 185.84 268.87 183.68Q264.19 181.52 260.74 177.11Q257.30 172.70 255.36 165.93Q253.42 159.17 253.42 150L253.42 150Q253.42 140.78 255.36 134.04Q257.30 127.30 260.74 122.89Q264.19 118.47 268.87 116.32Q273.55 114.16 279.03 114.16L279.03 114.16Q284.51 114.16 289.24 116.32Q293.97 118.47 297.43 122.89Q300.90 127.30 302.87 134.04Q304.83 140.78 304.83 150ZM292.46 150L292.46 150Q292.46 142.39 291.35 137.39Q290.23 132.39 288.37 129.44Q286.50 126.48 284.07 125.29Q281.65 124.10 279.03 124.10L279.03 124.10Q276.46 124.10 274.06 125.29Q271.66 126.48 269.81 129.44Q267.97 132.39 266.88 137.39Q265.79 142.39 265.79 150L265.79 150Q265.79 157.61 266.88 162.61Q267.97 167.61 269.81 170.56Q271.66 173.52 274.06 174.71Q276.46 175.90 279.03 175.90L279.03 175.90Q281.65 175.90 284.07 174.71Q286.50 173.52 288.37 170.56Q290.23 167.61 291.35 162.61Q292.46 157.61 292.46 150ZM381.85 169.01L375.50 175.27L359.05 158.83L342.47 175.37L336.11 169.11L352.70 152.47L336.89 136.66L343.19 130.36L359.01 146.17L374.72 130.45L381.12 136.76L365.36 152.52L381.85 169.01ZM422.20 135.60L415.90 134.48Q416.62 129.44 418.71 125.63Q420.79 121.82 423.92 119.28Q427.05 116.73 431.10 115.44Q435.15 114.16 439.81 114.16L439.81 114.16Q444.66 114.16 448.56 115.54Q452.47 116.92 455.23 119.37Q457.99 121.82 459.47 125.12Q460.95 128.42 460.95 132.25L460.95 132.25Q460.95 135.60 460.20 138.14Q459.45 140.69 458.04 142.58Q456.64 144.47 454.55 145.78Q452.47 147.09 449.85 147.96L449.85 147.96Q456.15 149.95 459.26 154.03Q462.36 158.10 462.36 164.26L462.36 164.26Q462.36 169.50 460.42 173.52Q458.48 177.55 455.18 180.29Q451.88 183.03 447.54 184.43Q443.20 185.84 438.35 185.84L438.35 185.84Q433.07 185.84 429.14 184.63Q425.21 183.42 422.30 181.04Q419.39 178.66 417.35 175.22Q415.31 171.78 413.86 167.27L413.86 167.27L419.15 165.08Q421.23 164.21 423.05 164.62Q424.87 165.03 425.69 166.59L425.69 166.59Q426.57 168.28 427.61 169.93Q428.65 171.58 430.11 172.87Q431.56 174.15 433.53 174.95Q435.49 175.75 438.21 175.75L438.21 175.75Q441.26 175.75 443.54 174.76Q445.82 173.76 447.35 172.16Q448.88 170.56 449.63 168.60Q450.38 166.64 450.38 164.65L450.38 164.65Q450.38 162.13 449.85 160.06Q449.31 158.00 447.62 156.55Q445.92 155.09 442.74 154.27Q439.56 153.44 434.23 153.44L434.23 153.44L434.23 144.91Q438.64 144.86 441.55 144.08Q444.46 143.31 446.18 141.92Q447.91 140.54 448.59 138.60Q449.26 136.66 449.26 134.33L449.26 134.33Q449.26 129.39 446.50 126.82Q443.74 124.25 439.13 124.25L439.13 124.25Q436.99 124.25 435.20 124.85Q433.40 125.46 431.97 126.55Q430.54 127.64 429.57 129.10Q428.60 130.55 428.12 132.30L428.12 132.30Q427.29 134.53 425.96 135.26Q424.63 135.98 422.20 135.60L422.20 135.60ZM520.75 150L520.75 150Q520.75 159.17 518.79 165.93Q516.82 172.70 513.36 177.11Q509.89 181.52 505.16 183.68Q500.43 185.84 494.95 185.84L494.95 185.84Q489.47 185.84 484.79 183.68Q480.11 181.52 476.67 177.11Q473.22 172.70 471.28 165.93Q469.34 159.17 469.34 150L469.34 150Q469.34 140.78 471.28 134.04Q473.22 127.30 476.67 122.89Q480.11 118.47 484.79 116.32Q489.47 114.16 494.95 114.16L494.95 114.16Q500.43 114.16 505.16 116.32Q509.89 118.47 513.36 122.89Q516.82 127.30 518.79 134.04Q520.75 140.78 520.75 150ZM508.39 150L508.39 150Q508.39 142.39 507.27 137.39Q506.15 132.39 504.29 129.44Q502.42 126.48 500.00 125.29Q497.57 124.10 494.95 124.10L494.95 124.10Q492.38 124.10 489.98 125.29Q487.58 126.48 485.74 129.44Q483.89 132.39 482.80 137.39Q481.71 142.39 481.71 150L481.71 150Q481.71 157.61 482.80 162.61Q483.89 167.61 485.74 170.56Q487.58 173.52 489.98 174.71Q492.38 175.90 494.95 175.90L494.95 175.90Q497.57 175.90 500.00 174.71Q502.42 173.52 504.29 170.56Q506.15 167.61 507.27 162.61Q508.39 157.61 508.39 150ZM577.01 150L577.01 150Q577.01 159.17 575.05 165.93Q573.08 172.70 569.62 177.11Q566.15 181.52 561.42 183.68Q556.69 185.84 551.21 185.84L551.21 185.84Q545.73 185.84 541.05 183.68Q536.37 181.52 532.93 177.11Q529.48 172.70 527.54 165.93Q525.60 159.17 525.60 150L525.60 150Q525.60 140.78 527.54 134.04Q529.48 127.30 532.93 122.89Q536.37 118.47 541.05 116.32Q545.73 114.16 551.21 114.16L551.21 114.16Q556.69 114.16 561.42 116.32Q566.15 118.47 569.62 122.89Q573.08 127.30 575.05 134.04Q577.01 140.78 577.01 150ZM564.65 150L564.65 150Q564.65 142.39 563.53 137.39Q562.41 132.39 560.55 129.44Q558.68 126.48 556.26 125.29Q553.83 124.10 551.21 124.10L551.21 124.10Q548.64 124.10 546.24 125.29Q543.84 126.48 542.00 129.44Q540.15 132.39 539.06 137.39Q537.97 142.39 537.97 150L537.97 150Q537.97 157.61 539.06 162.61Q540.15 167.61 542.00 170.56Q543.84 173.52 546.24 174.71Q548.64 175.90 551.21 175.90L551.21 175.90Q553.83 175.90 556.26 174.71Q558.68 173.52 560.55 170.56Q562.41 167.61 563.53 162.61Q564.65 157.61 564.65 150Z" fill="#999999"/></svg>