<svg xmlns="http://www.w3.org/2000/svg" xmlns:xlink="http://www.w3.org/1999/xlink" width="380" height="240" viewBox="0 0 380 240"><rect width="100%" height="100%" fill="#DDDDDD"/><path d="M79.94 112.43L76.63 111.84Q77.01 109.19 78.11 107.19Q79.20 105.18 80.85 103.85Q82.49 102.51 84.62 101.83Q86.75 101.16 89.20 101.16L89.20 101.16Q91.75 101.16 93.80 101.88Q95.85 102.61 97.31 103.90Q98.76 105.18 99.54 106.92Q100.32 108.65 100.32 110.67L100.32 110.67Q100.32 112.43 99.92 113.77Q99.53 115.10 98.79 116.10Q98.05 117.09 96.95 117.78Q95.85 118.47 94.48 118.93L94.48 118.93Q97.79 119.97 99.42 122.12Q101.06 124.26 101.06 127.50L101.06 127.50Q101.06 130.25 100.04 132.37Q99.02 134.48 97.28 135.92Q95.55 137.37 93.27 138.10Q90.98 138.84 88.43 138.84L88.43 138.84Q85.65 138.84 83.59 138.21Q81.52 137.57 79.99 136.32Q78.46 135.07 77.39 133.26Q76.32 131.45 75.56 129.08L75.56 129.08L78.34 127.93Q79.43 127.47 80.39 127.69Q81.34 127.91 81.78 128.72L81.78 128.72Q82.24 129.61 82.79 130.48Q83.33 131.35 84.10 132.02Q84.86 132.70 85.90 133.12Q86.93 133.54 88.36 133.54L88.36 133.54Q89.96 133.54 91.16 133.02Q92.36 132.50 93.16 131.65Q93.97 130.81 94.36 129.78Q94.76 128.75 94.76 127.70L94.76 127.70Q94.76 126.38 94.48 125.29Q94.20 124.21 93.30 123.44Q92.41 122.68 90.74 122.24Q89.07 121.81 86.27 121.81L86.27 121.81L86.27 117.32Q88.59 117.30 90.12 116.89Q91.65 116.48 92.55 115.75Q93.46 115.03 93.81 114.01Q94.17 112.99 94.17 111.76L94.17 111.76Q94.17 109.16 92.72 107.81Q91.26 106.46 88.84 106.46L88.84 106.46Q87.72 106.46 86.78 106.78Q85.83 107.10 85.08 107.67Q84.33 108.24 83.82 109.01Q83.31 109.77 83.05 110.69L83.05 110.69Q82.62 111.87 81.92 112.25Q81.22 112.63 79.94 112.43L79.94 112.43ZM118.24 133.92L118.24 133.92Q119.80 133.92 120.97 133.48Q122.14 133.03 122.95 132.24Q123.75 131.45 124.16 130.35Q124.57 129.26 124.57 127.98L124.57 127.98Q124.57 124.95 122.88 123.39Q121.20 121.84 118.24 121.84L118.24 121.84Q115.28 121.84 113.60 123.39Q111.92 124.95 111.92 127.98L111.92 127.98Q111.92 129.26 112.33 130.35Q112.73 131.45 113.54 132.24Q114.34 133.03 115.51 133.48Q116.69 133.92 118.24 133.92ZM118.24 105.90L118.24 105.90Q116.84 105.90 115.82 106.33Q114.80 106.77 114.12 107.49Q113.45 108.22 113.13 109.16Q112.81 110.11 112.81 111.15L112.81 111.15Q112.81 112.25 113.08 113.28Q113.35 114.31 113.98 115.12Q114.62 115.92 115.67 116.40Q116.71 116.89 118.24 116.89L118.24 116.89Q119.77 116.89 120.82 116.40Q121.86 115.92 122.50 115.12Q123.14 114.31 123.41 113.28Q123.67 112.25 123.67 111.15L123.67 111.15Q123.67 110.11 123.34 109.16Q123.01 108.22 122.35 107.49Q121.69 106.77 120.67 106.33Q119.65 105.90 118.24 105.90ZM124.46 119.21L124.46 119.21Q127.83 120.31 129.44 122.56Q131.04 124.82 131.04 128.08L131.04 128.08Q131.04 130.53 130.11 132.52Q129.18 134.51 127.50 135.91Q125.82 137.31 123.46 138.08Q121.10 138.84 118.24 138.84L118.24 138.84Q115.39 138.84 113.03 138.08Q110.67 137.31 108.99 135.91Q107.30 134.51 106.37 132.52Q105.44 130.53 105.44 128.08L105.44 128.08Q105.44 124.82 107.05 122.56Q108.65 120.31 112.02 119.21L112.02 119.21Q109.34 118.09 108.00 116.02Q106.67 113.96 106.67 111.05L106.67 111.05Q106.67 108.96 107.52 107.15Q108.37 105.34 109.90 104.00Q111.43 102.66 113.56 101.91Q115.69 101.16 118.24 101.16L118.24 101.16Q120.79 101.16 122.92 101.91Q125.05 102.66 126.58 104.00Q128.11 105.34 128.97 107.15Q129.82 108.96 129.82 111.05L129.82 111.05Q129.82 113.96 128.48 116.02Q127.14 118.09 124.46 119.21ZM161.34 120L161.34 120Q161.34 124.82 160.31 128.38Q159.27 131.93 157.45 134.25Q155.63 136.57 153.14 137.71Q150.65 138.84 147.77 138.84L147.77 138.84Q144.89 138.84 142.43 137.71Q139.97 136.57 138.16 134.25Q136.35 131.93 135.33 128.38Q134.31 124.82 134.31 120L134.31 120Q134.31 115.16 135.33 111.61Q136.35 108.07 138.16 105.75Q139.97 103.42 142.43 102.29Q144.89 101.16 147.77 101.16L147.77 101.16Q150.65 101.16 153.14 102.29Q155.63 103.42 157.45 105.75Q159.27 108.07 160.31 111.61Q161.34 115.16 161.34 120ZM154.84 120L154.84 120Q154.84 116.00 154.25 113.37Q153.66 110.74 152.68 109.19Q151.70 107.63 150.42 107.01Q149.15 106.38 147.77 106.38L147.77 106.38Q146.42 106.38 145.16 107.01Q143.90 107.63 142.93 109.19Q141.96 110.74 141.38 113.37Q140.81 116.00 140.81 120L140.81 120Q140.81 124.00 141.38 126.63Q141.96 129.26 142.93 130.81Q143.90 132.37 145.16 132.99Q146.42 133.62 147.77 133.62L147.77 133.62Q149.15 133.62 150.42 132.99Q151.70 132.37 152.68 130.81Q153.66 129.26 154.25 126.63Q154.84 124.00 154.84 120ZM201.83 130.00L198.49 133.29L189.85 124.64L181.13 133.34L177.79 130.05L186.51 121.30L178.19 112.99L181.51 109.67L189.82 117.99L198.08 109.72L201.45 113.04L193.16 121.33L201.83 130.00ZM232.53 132.57L241.99 132.57Q243.01 132.57 243.61 133.15Q244.21 133.72 244.21 134.66L244.21 134.66L244.21 138.44L218.92 138.44L218.92 136.35Q218.92 135.71 219.18 135.01Q219.45 134.31 220.04 133.74L220.04 133.74L231.23 122.52Q232.64 121.10 233.75 119.80Q234.85 118.50 235.59 117.22Q236.33 115.95 236.73 114.63Q237.12 113.32 237.12 111.87L237.12 111.87Q237.12 110.54 236.74 109.53Q236.36 108.52 235.66 107.84Q234.96 107.15 233.97 106.80Q232.99 106.46 231.77 106.46L231.77 106.46Q230.65 106.46 229.69 106.78Q228.73 107.10 227.99 107.67Q227.26 108.24 226.75 109.01Q226.24 109.77 225.98 110.69L225.98 110.69Q225.55 111.87 224.86 112.25Q224.17 112.63 222.87 112.43L222.87 112.43L219.55 111.84Q219.94 109.19 221.03 107.19Q222.13 105.18 223.77 103.85Q225.42 102.51 227.55 101.83Q229.68 101.16 232.13 101.16L232.13 101.16Q234.68 101.16 236.79 101.91Q238.91 102.66 240.41 104.04Q241.92 105.41 242.76 107.35Q243.60 109.29 243.60 111.66L243.60 111.66Q243.60 113.70 243.00 115.44Q242.40 117.17 241.40 118.75Q240.39 120.33 239.04 121.81Q237.69 123.29 236.21 124.82L236.21 124.82L227.89 133.31Q229.09 132.95 230.28 132.76Q231.46 132.57 232.53 132.57L232.53 132.57ZM253.50 124.54L264.71 124.54L264.71 112.48Q264.71 110.77 264.94 108.70L264.94 108.70L253.50 124.54ZM270.20 124.54L274.84 124.54L274.84 128.19Q274.84 128.70 274.51 129.07Q274.18 129.44 273.56 129.44L273.56 129.44L270.20 129.44L270.20 138.44L264.71 138.44L264.71 129.44L249.16 129.44Q248.52 129.44 248.04 129.04Q247.55 128.64 247.43 128.06L247.43 128.06L246.76 124.87L264.23 101.54L270.20 101.54L270.20 124.54ZM304.44 120L304.44 120Q304.44 124.82 303.41 128.38Q302.38 131.93 300.56 134.25Q298.73 136.57 296.25 137.71Q293.76 138.84 290.88 138.84L290.88 138.84Q288.00 138.84 285.54 137.71Q283.07 136.57 281.26 134.25Q279.45 131.93 278.43 128.38Q277.41 124.82 277.41 120L277.41 120Q277.41 115.16 278.43 111.61Q279.45 108.07 281.26 105.75Q283.07 103.42 285.54 102.29Q288.00 101.16 290.88 101.16L290.88 101.16Q293.76 101.16 296.25 102.29Q298.73 103.42 300.56 105.75Q302.38 108.07 303.41 111.61Q304.44 115.16 304.44 120ZM297.94 120L297.94 120Q297.94 116.00 297.36 113.37Q296.77 110.74 295.79 109.19Q294.81 107.63 293.53 107.01Q292.25 106.38 290.88 106.38L290.88 106.38Q289.53 106.38 288.26 107.01Q287.00 107.63 286.03 109.19Q285.06 110.74 284.49 113.37Q283.92 116.00 283.92 120L283.92 120Q283.92 124.00 284.49 126.63Q285.06 129.26 286.03 130.81Q287.00 132.37 288.26 132.99Q289.53 133.62 290.88 133.62L290.88 133.62Q292.25 133.62 293.53 132.99Q294.81 132.37 295.79 130.81Q296.77 129.26 297.36 126.63Q297.94 124.00 297.94 120Z" fill="#999999"/></svg>